<svg id="Layer_1" data-name="Layer 1" xmlns="http://www.w3.org/2000/svg" viewBox="0 0 388.91 527.86"><defs><style>.cls-1{fill:#172958;}.cls-1,.cls-2,.cls-3,.cls-4,.cls-5,.cls-6{fill-rule:evenodd;}.cls-2{fill:#008bb4;}.cls-3{fill:#c4e9fb;}.cls-4{fill:#6e7a7f;}.cls-5{fill:#546e79;}.cls-6{fill:#95b6c6;}</style></defs><title>logo bigyapan vector</title><path class="cls-1" d="M357,459.79l-.64,19.64c0,15.9,1.45,20.18,2.82,33.24.24,2.33.67,2.81.85,4.58A90,90,0,0,0,363.84,534c1.51.48.53-.52,1.78,2.49,1.55,3.74-.4.7,1.93,5.49.58,1.18.84,2.92,1.31,4.24l5.18,12c5.59,11,11.11,22.63,18.76,32.08l2.52,3.36c1.15,1.38,6.28,10.87,8.7,14l15.75,23.73a11.32,11.32,0,0,1,1.31,1.55l28.1,43.39c1.59,2.48,3,4.26,4.57,6.74l2.12,3.37a34.59,34.59,0,0,0,2.36,3.55L485.3,731.5c3.39,4.92,7.33,12,11,17.11L508,766c1.1,1.11,1.21,2,2,3.43,2.62,4.61,8.83,12.78,12,18.27l1.39,2.44c.86,1.42,1.52,1.63,2.58,3.24a30.53,30.53,0,0,0,21.4,13.21c6.27.82,11.83.51,18.14-3.25,6.6-3.93,12.38-11.21,16.16-17.86,3.35-5.91,9.39-14.28,13.57-20.87.48-.75.57-.66,1.1-1.46l19.1-29.19c.5-.72.69-1.13,1.11-1.79.53-.82.53-.7,1.18-1.81l13.59-20.9a99.8,99.8,0,0,1,6.65-10.13c3.31-4.54,4-6.72,6.65-10.64l18-27.29c1-1.55,1.36-1.86,2.34-3.55.45-.78.65-1,1-1.78,1-2-.38-1,1.43-1.93,1.29-2.38,0-2.53-4.1-7-2.08-2.28-4.26-4.39-6.38-6.66-3.56-3.83-36.85-39.23-37.68-39.27l-14.42,6.63a113.35,113.35,0,0,1-16.2,5.3c-39.83,8.75-69.25,4.94-104.53-14.5-16.93-9.32-32.79-25-44.05-41.24-11-15.92-21.84-42.13-22.89-62.42-.08-.12-.18-.46-.21-.4-.39.78-1-7.05-1-7.58-.79-17.77,2.75-36.47,8.16-52.65,13.29-39.74,46.8-71.78,87.37-85,29.91-9.77,61.56-8.28,89.43,1.52,40.69,14.31,70.88,47.64,84.17,88,1.8,5.45,6.3,23,5.72,29.53-.42,1.73.53,16.18.27,20.36-.82,13.38-3.08,23-6.91,35.49-.45,1.47-4.6,12.47-5.67,14.07-.94,1.39,0,.32-.93,1,.11,2.2-1.86,3.12-2,5.76.63.42.14.16.84.38l9.25,9.65c4.28,4.3,26.58,27,28.13,27.7l10.36-17.29,5.92-13.12c2-6.28,4.89-12.54,6-17.05l1.1-3.93c1.36-4.46,4-14.19,4.46-18.75s1.17-5.57,1.74-12.6c.44-5.53,1.12-11.44,1.11-17.21,0-6.07-.56-13.11-.37-18.86.29-5.57-1.54-16-2.57-22.08-1-5.7-2.75-10.4-3.75-14.88-.22-.94-.34-1.5-.61-2.57-.47-1.82-.5-1.08-.9-2.29-.55-1.67-.65-3.54-1.23-5.19-.45-1.3-1.44-3.25-1.87-4.29l-3.43-9.24c-.65-1.82-1.19-2.85-1.85-4.6l-6.26-12.42c-.75-.6-.57-.39-1.15-1.41-.3-.54-.54-1.16-.82-1.68l-5.58-9.63-22-28.36c-2.59-2.67-13.48-13.41-15.49-14.72-1.08-.7-.48-.1-1.57-1l-4.1-3.48a51.69,51.69,0,0,0-5.79-4.34,25,25,0,0,1-3-2l-9-6a52.18,52.18,0,0,0-6.27-3.83c-1.12-.57-2.13-1.16-3.25-1.75l-13.11-6.64c-3.71-2-6-2.34-9-3.63-.82-.35-.9-.49-1.6-.84-3.17-1.59-19.17-6.28-23.1-7.11-3-.65-4.86-1.46-8-2L562.1,284.6c-12.58-.94-18-.05-29,.45a227.89,227.89,0,0,0-25.79,4l-11.65,3.34c-8.6,2.17-10.19,3.09-18.65,6.6-8.24,3.42-13.22,6-20.51,9.71-1.32.67-1.71,1.39-2.94,2.05-1.68.89-1.49.36-3.18,1.52-9,6.19-14.39,9.32-23.69,16.64-1.08.85-1.47,1.51-2.57,2.49-.9.82-1.79,1.44-2.8,2.28-2.55,2.11-5.06,5.15-6.43,6.19-4.42,3.38-.34.43-3.71,3.81L393,365.32c-2,2.18-6.08,8.81-8,12.19-1,1.68-2.74,4.27-3.76,6.32-.49,1-1.06,2.32-1.65,3.35s-1.43,1.92-2,3l-12.68,32.48c-.42,1.48-.94,2.24-1.34,3.42Z" transform="translate(-356.32 -284.19)"/><path class="cls-2" d="M438.71,453.5c-.29,2.15-.8,3.85-1.15,5.93l-1.6,20c0,7.56.91,18.87,2.71,26,1.74,6.86,4,14.95,7.12,21.38a160,160,0,0,0,10.3,18.75c12.74,19.51,33.35,35.77,55.18,44,20.14,7.58,40.08,10.12,62.39,6.53,12.53-2,22.06-4.8,32.77-10.21,22.89-11.58,24.6-2.56,43.8,17.61l20.84,22c1.31,1.39,2.1,2.3,3.46,3.68.71.73,1.14,1.17,1.85,1.92l2.14,1.89c1.83-1,7.92-10.54,9.08-12.19,1.39-2,3.06-4.38,4.3-6.2,1.36-2,3-4.82,4.41-6.46a7.09,7.09,0,0,0,1.33-2.28c-1.14-2.48-33.86-36.5-38.31-41.31-1.49-1.61-4.18-3.88-5.53-5.85-5-8.66,9-27.45,13.31-42.58.31-1.1,1-2.45,1.4-3.94,2-7,2.15-8.89,3.25-15.25.34-2-.27-1.28.91-2.15a154.49,154.49,0,0,0-.13-27.54c-1-10.43-5-25-8.91-34.37-6.85-16.27-17.18-29.46-29.7-41.21-3.68-3.45-11.66-9.82-16.47-12.46-13.33-7.33-14.26-8.7-30.26-13.22a38.33,38.33,0,0,0-5.73-1.47,50.83,50.83,0,0,1-6.13-1.32c-10.11-2.88-28.34-2.26-39.46-.45A105.47,105.47,0,0,0,518,366.88a80.69,80.69,0,0,0-10.38,3.88c-1.85,1-3,1.26-4.95,2.22-16.95,8.17-31.78,20.85-43.23,35.69a115.89,115.89,0,0,0-19.15,39A59,59,0,0,1,438.71,453.5Z" transform="translate(-356.32 -284.19)"/><path class="cls-3" d="M466.66,468c.24,5.77-1.75,9.39-.46,22.36,4.19,41.94,41.58,77.87,88.38,77.92,25.72,0,50.67-11.51,65.84-28.92,6.27-7.19,15.2-20,17.86-29.68,3.84-14,5.12-14,5-30.27l-.81-11.28c-.33-.47,0,.21-.46-.9,0,0-.28-1-.28-1a73.66,73.66,0,0,0-4-13.55c-1-2.28-1.76-4.86-3-7.2-10.15-19.71-25.8-34.65-46.35-43.12-21.16-8.73-47.06-8.34-67.58-.05L517.46,404A77.19,77.19,0,0,0,496,417.5c-12.13,10.29-18.55,20.9-24.78,35.35-2,4.75-1.1,2.39-2.42,7.76-.39,1.57-.77,2.25-1.1,3.84C467.34,466.2,467.48,466.87,466.66,468Z" transform="translate(-356.32 -284.19)"/><path class="cls-2" d="M487.66,462.2c-.48,2.58-3.11,12.85-1.8,15l19.07.72.14-.88c-.08-12.87,6.88-25.32,15.61-33.57,16.06-15.17,33.18-12.78,35.14-13.83a8.46,8.46,0,0,1,.1,5.07c.48-1.7.6-9.12.65-11.54.36-15,2.88-13.49-13.77-11.51-4.41.52-8,1.94-11.9,3.25a61.63,61.63,0,0,0-19.56,10.79,63.1,63.1,0,0,0-7.8,7.38c-5.73,6.23-3.15,4-6.67,8.4a46.65,46.65,0,0,0-5.46,9.74C490.29,454.11,488.14,459.14,487.66,462.2Z" transform="translate(-356.32 -284.19)"/><path class="cls-4" d="M667.44,654.12c-1.81.92-.44,0-1.43,1.93-.39.76-.59,1-1,1.78-1,1.69-1.32,2-2.34,3.55l-18,27.29c-2.61,3.92-3.34,6.1-6.65,10.64a99.8,99.8,0,0,0-6.65,10.13l-13.59,20.9c-.65,1.11-.65,1-1.18,1.81-.42.66-.61,1.07-1.11,1.79l-19.1,29.19c-.53.8-.62.71-1.1,1.46-4.18,6.59-10.22,15-13.57,20.87-3.78,6.65-9.56,13.93-16.16,17.86-6.31,3.76-11.87,4.07-18.14,3.25a30.53,30.53,0,0,1-21.4-13.21c-1.06-1.61-1.72-1.82-2.58-3.24L522,787.68c-3.16-5.49-9.37-13.66-12-18.27-.81-1.43-.92-2.32-2-3.43l-11.61-17.37c-3.71-5.13-7.65-12.19-11-17.11l-27.07-41.43a34.59,34.59,0,0,1-2.36-3.55l-2.12-3.37c-1.53-2.48-3-4.26-4.57-6.74L421.08,633a11.32,11.32,0,0,0-1.31-1.55L404,607.74c-2.42-3.18-7.55-12.67-8.7-14l-2.52-3.36c-7.65-9.45-13.17-21.07-18.76-32.08l-5.18-12c-.47-1.32-.73-3.06-1.31-4.24-2.33-4.79-.38-1.75-1.93-5.49-1.25-3-.27-2-1.78-2.49.57,6.39,6.61,20.48,8.69,26.16,1.3,3.55,10.26,20.21,12,22.89,3.24,5,5.63,9.31,9.16,14,.58.78,1.66,2.08,2.37,3.09l22.89,35c1.08,1.89,1.46,1.65,2.46,3.41,3,5.22,5.8,8.93,9,14.23l43.5,66c.92,1.55,1.45,2.23,2.32,3.61L492.1,747a78.43,78.43,0,0,0,4.46,6.85,29.42,29.42,0,0,1,2.36,3.51c2.29,3.65,6.66,10.7,9.22,13.85,1.64,2,2.78,5,4.51,7.29L522,792.21c1.47,2.09-.52.4,3.24,5.2,1.64,2.11,3.8,5.86,6.86,7.8a7.83,7.83,0,0,1,1.55,1c9.07,7.34,23.58,7.69,33.17,1.35,7.67-5.09,11.21-11.52,15.65-18.77l4.79-6.92a38.9,38.9,0,0,0,2.18-3.3c1.06-1.64,1.49-1.81,2.47-3.38l3.26-5.6c.5-.76,1-1.06,1.35-1.57l11.12-17.5A17.34,17.34,0,0,0,610,747l11.44-17.49c.84-1.34,1.49-2.52,2.28-3.73,3.17-4.81,4.71-6.56,8-12.06A17.45,17.45,0,0,1,633,712a17.6,17.6,0,0,0,.92-1.58c.41-.69.79-1.18,1.19-1.78l7.06-10.6c.79-1.29,1.19-2.27,2-3.47s1.54-2.18,2.38-3.47l11.6-17.32a36.06,36.06,0,0,1,2.25-3.68c1.66-2.49,3.08-4.58,4.61-7.18.84-1.44,1.54-2.07,2.37-3.52,1.52-2.67.21-1.81-.42-4A4.35,4.35,0,0,0,667.44,654.12Z" transform="translate(-356.32 -284.19)"/><path class="cls-5" d="M417.19,495l-.63-12.82c-.34-20.18,5.57-39.09,12.19-54.17,12.91-29.39,37-52.65,65.28-66.66,24.58-12.18,55.48-16.92,83.31-11.72,26.07,4.88,48.1,15.46,67.28,32.24a134.7,134.7,0,0,1,29.44,36.52,126.87,126.87,0,0,1,10.17,23.06,134,134,0,0,1,5,19.66l.8,5.35c.21.91-.1-.12.21.78a2.53,2.53,0,0,0,.53,1.11c.58-6.56-3.92-24.08-5.72-29.53-13.29-40.33-43.48-73.66-84.17-88-27.87-9.8-59.52-11.29-89.43-1.52-40.57,13.26-74.08,45.3-87.37,85-5.41,16.18-8.95,34.88-8.16,52.65,0,.53.63,8.36,1,7.58C417,494.51,417.11,494.85,417.19,495Z" transform="translate(-356.32 -284.19)"/><path class="cls-4" d="M437,502.11c.29.21,1.81,8.89,2.08,10a105.18,105.18,0,0,0,2.9,10.23,136.42,136.42,0,0,0,7.79,17.8c10.47,20.18,31.76,41.28,52.38,50.51,16.15,7.23,22,9.18,40,11.58,15.05,2,32.87-.33,45.75-4.21A116.21,116.21,0,0,0,606.49,591c5.75-2.89,12.36-6.66,20.64-4.28,5.73,1.65,10.22,8.2,13.8,11.86,5.69,5.83,36.3,39.31,37.59,39.9,1-.35,1.86-2.21,2.5-3.12,1-1.44,1.66-2.33,2.44-3.48L693.08,618c8.65-12.6,3.61-4.62,3.23-9.78-1.42,1.64-3,4.47-4.41,6.46-1.24,1.82-2.91,4.22-4.3,6.2-1.16,1.65-7.25,11.2-9.08,12.19l-2.14-1.89c-.71-.75-1.14-1.19-1.85-1.92-1.36-1.38-2.15-2.29-3.46-3.68l-20.84-22c-19.2-20.17-20.91-29.19-43.8-17.61-10.71,5.41-20.24,8.2-32.77,10.21-22.31,3.59-42.25,1-62.39-6.53-21.83-8.22-42.44-24.48-55.18-44a160,160,0,0,1-10.3-18.75c-3.11-6.43-5.38-14.52-7.12-21.38-1.8-7.14-2.73-18.45-2.71-26l1.6-20c.35-2.08.86-3.78,1.15-5.93-1.73,3.75-2.84,17.76-3,23.41-.13,4.34-.12,8.69.08,13S436.78,497.66,437,502.11Z" transform="translate(-356.32 -284.19)"/><path class="cls-5" d="M466.66,468c.82-1.15.68-1.82,1-3.57.33-1.59.71-2.27,1.1-3.84,1.32-5.37.38-3,2.42-7.76,6.23-14.45,12.65-25.06,24.78-35.35A77.19,77.19,0,0,1,517.46,404l3.31-1.66c20.52-8.29,46.42-8.68,67.58.05,20.55,8.47,36.2,23.41,46.35,43.12,1.21,2.34,2,4.92,3,7.2a73.66,73.66,0,0,1,4,13.55s.28,1,.28,1c.42,1.11.13.43.46.9.79-8.45-6.46-25.16-9.84-31.43a94,94,0,0,0-18.21-23,114.36,114.36,0,0,0-11.68-8.89l-13.57-7.11a79.81,79.81,0,0,0-15.78-4.89l-8.68-1.44c-14.57-1-31.71-.29-45,6.13-9.09,4.39-18.18,9.62-25,16.09a95.56,95.56,0,0,0-18.25,22.83C473,442.63,466,459.8,466.66,468Z" transform="translate(-356.32 -284.19)"/><path class="cls-4" d="M676.43,545.39c.83,4.83-3.58,1.86,1.7,7.12l30.25,30.24,2.51,2.53c1.4,1.42,1.42,1.71,2.92,2.34,1.85-1.28,6.79-10.82,8.4-13.61.7-1.22,1.19-2.46,1.86-3.64,1.83-3.23,3.21-7.85,5.29-10.7l5-13.54c.41-1,.46-1,.89-2.3.65-1.89,1-3.48,1.55-5.22,2-6.23,5.3-20.7,5.82-26,.73-7.49,1.71-12.29,2.35-21.46.42-5.92.31-14.78.15-21,0-1.45-.23-4.92-.94-6.23-.19,5.75.35,12.79.37,18.86,0,5.77-.67,11.68-1.11,17.21-.57,7-1.3,8-1.74,12.6s-3.1,14.29-4.46,18.75l-1.1,3.93c-1.13,4.51-4,10.77-6,17.05l-5.92,13.12-10.36,17.29c-1.55-.69-23.85-23.4-28.13-27.7Z" transform="translate(-356.32 -284.19)"/><path class="cls-5" d="M505.07,477a9.21,9.21,0,0,0,.42-1.88,4.23,4.23,0,0,1,.36-1.09c.64-1.26-.67-.23.83-1-.76-3.13,4.76-12.79,6.15-15.11,5.44-9.07,14.81-15.88,24.39-19.47,5.39-2,4.95-1.21,8.67-2.26,2.09-.59,9-.8,10-1.51a8.46,8.46,0,0,0-.1-5.07c-2,1-19.08-1.34-35.14,13.83C512,451.68,505,464.13,505.07,477Z" transform="translate(-356.32 -284.19)"/><path class="cls-4" d="M653.8,558.73c-1.27-4.55,1.55-10.44,3.3-14.21,1.19-2.56,5.22-10.95,6.12-12a68.33,68.33,0,0,1,3.33-8.68l3.89-13.76c1-6,1.92-8.62,2.23-15.28-1.18.87-.57.14-.91,2.15-1.1,6.36-1.24,8.29-3.25,15.25-.43,1.49-1.09,2.84-1.4,3.94C662.78,531.28,648.78,550.07,653.8,558.73Z" transform="translate(-356.32 -284.19)"/><polygon class="cls-5" points="148.61 193.69 129.54 192.98 129.48 197.69 148.24 198.11 148.61 193.69"/><path class="cls-6" d="M506.68,473c-1.5.78-.19-.25-.83,1a4.23,4.23,0,0,0-.36,1.09,9.21,9.21,0,0,1-.42,1.88l-.14.88-.37,4.41-18.76-.41.06-4.72c-1.31-2.11,1.32-12.38,1.8-15-.7.61-.22,0-.71.79a2,2,0,0,0-.37.88c0,.11-.4,2.38-.4,2.42-.73,3.59-1.84,13.09-.93,16.1,2,.75,17.94,1.23,19.44.58.44-.41.27,0,.57-.78Z" transform="translate(-356.32 -284.19)"/></svg>