<?xml version="1.0" encoding="UTF-8"?>
<!DOCTYPE svg PUBLIC "-//W3C//DTD SVG 1.1//EN" "http://www.w3.org/Graphics/SVG/1.1/DTD/svg11.dtd">
<!-- Creator: CorelDRAW 2021 (64-Bit Evaluation Version) -->
<svg xmlns="http://www.w3.org/2000/svg" xml:space="preserve" width="0.136382in" height="0.182618in" version="1.1" style="shape-rendering:geometricPrecision; text-rendering:geometricPrecision; image-rendering:optimizeQuality; fill-rule:evenodd; clip-rule:evenodd"
viewBox="0 0 19.27 25.8"
 xmlns:xlink="http://www.w3.org/1999/xlink"
 xmlns:xodm="http://www.corel.com/coreldraw/odm/2003">
 <defs>
  <style type="text/css">
   <![CDATA[
    .fil1 {fill:#F58634}
    .fil0 {fill:#0984B1}
   ]]>
  </style>
 </defs>
 <g id="Layer_x0020_1">
  <metadata id="CorelCorpID_0Corel-Layer"/>
  <path class="fil0" d="M3.36 0l0 9.38c1.02,-1 2.03,-1.72 3.01,-2.15 0.99,-0.44 2.12,-0.66 3.41,-0.66 2.63,0 4.87,0.92 6.71,2.77 1.85,1.85 2.77,4.11 2.77,6.79 0,2.7 -0.96,4.99 -2.88,6.86 -0.31,0.3 -0.62,0.57 -0.95,0.82l-1.72 -3.01c0.08,-0.08 0.17,-0.15 0.25,-0.24 1.23,-1.23 1.84,-2.73 1.84,-4.51 0,-1.82 -0.59,-3.34 -1.77,-4.54 -1.18,-1.2 -2.66,-1.81 -4.43,-1.81 -1.75,0 -3.25,0.62 -4.49,1.86 -1.24,1.24 -1.86,2.75 -1.86,4.53 0,1.82 0.58,3.33 1.75,4.53 1.17,1.19 2.65,1.79 4.45,1.79 0.66,0 1.28,-0.09 1.87,-0.25l1.72 3c-1.13,0.43 -2.36,0.65 -3.69,0.65 -2.82,0 -5.08,-0.89 -6.79,-2.66 -1.7,-1.78 -2.55,-4.14 -2.55,-7.08l0 -15.58 3.36 -0.47z"/>
  <path class="fil1" d="M9.47 12.02c2.09,0 3.79,1.78 3.79,3.98 0,2.2 -1.7,3.98 -3.79,3.98 -2.09,0 -3.79,-1.78 -3.79,-3.98 0,-2.2 1.7,-3.98 3.79,-3.98zm-0.99 1.61c-0.53,0.26 -0.94,0.65 -1.21,1.14 -0.06,0.11 -0.19,0.36 -0.18,0.47l1 0.33c0.11,-0.09 0.33,-1.05 1.52,-1.12 0.31,-0.02 0.49,0.09 0.6,0.07 -0.01,-0.08 0,-0.07 0.03,-0.12l0.29 -0.9c-0.61,-0.23 -1.45,-0.17 -2.05,0.13z"/>
 </g>
</svg>
