<?xml version="1.0" encoding="UTF-8"?>
<!DOCTYPE svg PUBLIC "-//W3C//DTD SVG 1.1//EN" "http://www.w3.org/Graphics/SVG/1.1/DTD/svg11.dtd">
<!-- Creator: CorelDRAW 2021 (64-Bit Evaluation Version) -->
<svg xmlns="http://www.w3.org/2000/svg" xml:space="preserve" width="0.136382in" height="0.182618in" version="1.1" style="shape-rendering:geometricPrecision; text-rendering:geometricPrecision; image-rendering:optimizeQuality; fill-rule:evenodd; clip-rule:evenodd"
viewBox="0 0 8.8 11.78"
 xmlns:xlink="http://www.w3.org/1999/xlink"
 xmlns:xodm="http://www.corel.com/coreldraw/odm/2003">
 <defs>
  <style type="text/css">
   <![CDATA[
    .fil0 {fill:#FEFEFE}
   ]]>
  </style>
 </defs>
 <g id="Layer_x0020_1">
  <metadata id="CorelCorpID_0Corel-Layer"/>
  <g id="_2235826639120">
   <path class="fil0" d="M1.53 0l0 4.28c0.47,-0.46 0.92,-0.78 1.37,-0.98 0.45,-0.2 0.97,-0.3 1.56,-0.3 1.2,0 2.22,0.42 3.07,1.27 0.84,0.84 1.27,1.88 1.27,3.1 0,1.23 -0.44,2.28 -1.32,3.13 -0.14,0.14 -0.28,0.26 -0.43,0.38l-0.79 -1.38c0.04,-0.03 0.08,-0.07 0.11,-0.11 0.56,-0.56 0.84,-1.25 0.84,-2.06 0,-0.83 -0.27,-1.52 -0.81,-2.07 -0.54,-0.55 -1.21,-0.83 -2.02,-0.83 -0.8,0 -1.48,0.28 -2.05,0.85 -0.57,0.57 -0.85,1.26 -0.85,2.07 0,0.83 0.27,1.52 0.8,2.07 0.53,0.54 1.21,0.82 2.03,0.82 0.3,0 0.59,-0.04 0.85,-0.12l0.79 1.37c-0.52,0.2 -1.08,0.29 -1.69,0.29 -1.29,0 -2.32,-0.41 -3.1,-1.22 -0.78,-0.81 -1.17,-1.89 -1.17,-3.23l0 -7.12 1.53 -0.22z"/>
   <path class="fil0" d="M4.33 5.49c0.96,0 1.73,0.81 1.73,1.82 0,1 -0.77,1.82 -1.73,1.82 -0.96,0 -1.73,-0.81 -1.73,-1.82 0,-1 0.78,-1.82 1.73,-1.82zm-0.45 0.74c-0.24,0.12 -0.43,0.3 -0.55,0.52 -0.03,0.05 -0.09,0.16 -0.08,0.21l0.46 0.15c0.05,-0.04 0.15,-0.48 0.69,-0.51 0.14,-0.01 0.22,0.04 0.28,0.03 -0,-0.04 0,-0.03 0.01,-0.06l0.13 -0.41c-0.28,-0.11 -0.66,-0.08 -0.94,0.06z"/>
  </g>
 </g>
</svg>
